<mxfile host="app.diagrams.net" modified="2023-10-19T18:32:20.479Z" agent="Mozilla/5.0 (Windows NT 10.0; Win64; x64) AppleWebKit/537.36 (KHTML, like Gecko) Chrome/118.0.0.0 Safari/537.36" etag="WmAUqgw3BkjhRZrK89Xh" version="22.0.5" type="google">
  <diagram id="prtHgNgQTEPvFCAcTncT" name="Page-1">
    <mxGraphModel grid="0" page="1" gridSize="10" guides="1" tooltips="1" connect="1" arrows="1" fold="1" pageScale="1" pageWidth="827" pageHeight="1169" math="0" shadow="0">
      <root>
        <mxCell id="0" />
        <mxCell id="1" parent="0" />
        <mxCell id="AWUn-Fu58c9UiAzUyNMu-2" value="Rover Operator" style="swimlane;html=1;startSize=20;horizontal=0;direction=east;rotation=90;rounded=0;" vertex="1" parent="1">
          <mxGeometry x="-407.25" y="528" width="1052" height="120" as="geometry" />
        </mxCell>
        <mxCell id="AWUn-Fu58c9UiAzUyNMu-3" style="edgeStyle=orthogonalEdgeStyle;rounded=0;orthogonalLoop=1;jettySize=auto;html=1;entryX=0.5;entryY=0;entryDx=0;entryDy=0;" edge="1" parent="AWUn-Fu58c9UiAzUyNMu-2" source="AWUn-Fu58c9UiAzUyNMu-4" target="AWUn-Fu58c9UiAzUyNMu-7">
          <mxGeometry relative="1" as="geometry" />
        </mxCell>
        <mxCell id="AWUn-Fu58c9UiAzUyNMu-4" value="" style="ellipse;whiteSpace=wrap;html=1;direction=east;rotation=90;fillColor=#000000;rounded=0;" vertex="1" parent="AWUn-Fu58c9UiAzUyNMu-2">
          <mxGeometry x="514.22" y="-439" width="22.5" height="24.88" as="geometry" />
        </mxCell>
        <mxCell id="AWUn-Fu58c9UiAzUyNMu-5" value="" style="ellipse;whiteSpace=wrap;html=1;direction=east;rotation=90;rounded=0;" vertex="1" parent="AWUn-Fu58c9UiAzUyNMu-2">
          <mxGeometry x="505.47" y="535" width="40" height="40" as="geometry" />
        </mxCell>
        <mxCell id="AWUn-Fu58c9UiAzUyNMu-6" value="" style="ellipse;whiteSpace=wrap;html=1;direction=east;rotation=90;rounded=0;" vertex="1" parent="AWUn-Fu58c9UiAzUyNMu-2">
          <mxGeometry x="510.22" y="540.25" width="30.5" height="29.5" as="geometry" />
        </mxCell>
        <mxCell id="AWUn-Fu58c9UiAzUyNMu-7" value="Request Log In" style="rounded=1;whiteSpace=wrap;html=1;perimeterSpacing=0;glass=0;shadow=1;" vertex="1" parent="AWUn-Fu58c9UiAzUyNMu-2">
          <mxGeometry x="471" y="-385.28" width="110" height="14.28" as="geometry" />
        </mxCell>
        <mxCell id="AWUn-Fu58c9UiAzUyNMu-8" style="rounded=0;orthogonalLoop=1;jettySize=auto;html=1;endArrow=open;endFill=0;entryX=0.5;entryY=0;entryDx=0;entryDy=0;" edge="1" parent="AWUn-Fu58c9UiAzUyNMu-2" source="AWUn-Fu58c9UiAzUyNMu-9" target="AWUn-Fu58c9UiAzUyNMu-10">
          <mxGeometry relative="1" as="geometry">
            <mxPoint x="525.3315000000002" y="-189.00000000000006" as="targetPoint" />
            <mxPoint x="526.6600000000001" y="-248.31149999999982" as="sourcePoint" />
          </mxGeometry>
        </mxCell>
        <mxCell id="AWUn-Fu58c9UiAzUyNMu-9" value="Give Access" style="rounded=1;whiteSpace=wrap;html=1;glass=0;shadow=1;" vertex="1" parent="AWUn-Fu58c9UiAzUyNMu-2">
          <mxGeometry x="481.75" y="-207" width="88.5" height="13" as="geometry" />
        </mxCell>
        <mxCell id="AWUn-Fu58c9UiAzUyNMu-10" value="Request MissionStatus" style="rounded=1;whiteSpace=wrap;html=1;glass=0;shadow=1;" vertex="1" parent="AWUn-Fu58c9UiAzUyNMu-2">
          <mxGeometry x="481.22" y="-88.75" width="88.5" height="28" as="geometry" />
        </mxCell>
        <mxCell id="AWUn-Fu58c9UiAzUyNMu-11" style="hachureGap=4;orthogonalLoop=1;jettySize=auto;html=1;entryX=0;entryY=0.5;entryDx=0;entryDy=0;fontFamily=Architects Daughter;fontSource=https%3A%2F%2Ffonts.googleapis.com%2Fcss%3Ffamily%3DArchitects%2BDaughter;fontSize=16;" edge="1" parent="AWUn-Fu58c9UiAzUyNMu-2" source="AWUn-Fu58c9UiAzUyNMu-12" target="AWUn-Fu58c9UiAzUyNMu-5">
          <mxGeometry relative="1" as="geometry" />
        </mxCell>
        <mxCell id="AWUn-Fu58c9UiAzUyNMu-12" value="Receive Soil data" style="rounded=1;whiteSpace=wrap;html=1;shadow=1;" vertex="1" parent="AWUn-Fu58c9UiAzUyNMu-2">
          <mxGeometry x="475.87999999999994" y="475" width="100.25" height="15.5" as="geometry" />
        </mxCell>
        <mxCell id="AWUn-Fu58c9UiAzUyNMu-50" style="rounded=0;orthogonalLoop=1;jettySize=auto;html=1;endArrow=open;endFill=0;exitX=0.481;exitY=0.976;exitDx=0;exitDy=0;exitPerimeter=0;" edge="1" parent="AWUn-Fu58c9UiAzUyNMu-2" source="AWUn-Fu58c9UiAzUyNMu-15">
          <mxGeometry relative="1" as="geometry">
            <mxPoint x="569.72" y="-205.22000000000003" as="targetPoint" />
            <mxPoint x="645.357" y="-232.75300000000004" as="sourcePoint" />
          </mxGeometry>
        </mxCell>
        <mxCell id="AWUn-Fu58c9UiAzUyNMu-13" value="System&lt;br&gt;" style="swimlane;html=1;startSize=20;horizontal=0;direction=east;rotation=90;rounded=0;" vertex="1" parent="1">
          <mxGeometry x="-287.62" y="528.13" width="1052.25" height="120" as="geometry" />
        </mxCell>
        <mxCell id="AWUn-Fu58c9UiAzUyNMu-14" value="Process Log in" style="rounded=1;whiteSpace=wrap;html=1;glass=0;shadow=1;" vertex="1" parent="AWUn-Fu58c9UiAzUyNMu-13">
          <mxGeometry x="480.75" y="-352" width="88.5" height="15.5" as="geometry" />
        </mxCell>
        <mxCell id="AWUn-Fu58c9UiAzUyNMu-15" value="Confirm user&amp;nbsp;" style="rounded=1;whiteSpace=wrap;html=1;glass=0;shadow=1;" vertex="1" parent="AWUn-Fu58c9UiAzUyNMu-13">
          <mxGeometry x="480" y="-252" width="88.5" height="15.5" as="geometry" />
        </mxCell>
        <mxCell id="AWUn-Fu58c9UiAzUyNMu-16" value="Verify Log in" style="rounded=1;whiteSpace=wrap;html=1;glass=0;shadow=1;" vertex="1" parent="AWUn-Fu58c9UiAzUyNMu-13">
          <mxGeometry x="480" y="-302" width="88.5" height="15.5" as="geometry" />
        </mxCell>
        <mxCell id="AWUn-Fu58c9UiAzUyNMu-17" style="rounded=0;orthogonalLoop=1;jettySize=auto;html=1;entryX=0.5;entryY=0;entryDx=0;entryDy=0;exitX=0.5;exitY=1;exitDx=0;exitDy=0;endArrow=open;endFill=0;" edge="1" parent="AWUn-Fu58c9UiAzUyNMu-13" source="AWUn-Fu58c9UiAzUyNMu-14" target="AWUn-Fu58c9UiAzUyNMu-16">
          <mxGeometry relative="1" as="geometry" />
        </mxCell>
        <mxCell id="AWUn-Fu58c9UiAzUyNMu-18" style="rounded=0;orthogonalLoop=1;jettySize=auto;html=1;exitX=0.5;exitY=1;exitDx=0;exitDy=0;endArrow=open;endFill=0;entryX=0.5;entryY=0;entryDx=0;entryDy=0;" edge="1" parent="AWUn-Fu58c9UiAzUyNMu-13" source="AWUn-Fu58c9UiAzUyNMu-16" target="AWUn-Fu58c9UiAzUyNMu-15">
          <mxGeometry relative="1" as="geometry">
            <mxPoint x="571" y="-319" as="targetPoint" />
          </mxGeometry>
        </mxCell>
        <mxCell id="AWUn-Fu58c9UiAzUyNMu-22" value="Process Request" style="rounded=1;whiteSpace=wrap;html=1;shadow=1;" vertex="1" parent="AWUn-Fu58c9UiAzUyNMu-13">
          <mxGeometry x="475.62" y="-50.75" width="100.25" height="15.5" as="geometry" />
        </mxCell>
        <mxCell id="AWUn-Fu58c9UiAzUyNMu-105" value="Update System Database" style="rounded=1;whiteSpace=wrap;html=1;shadow=1;" vertex="1" parent="AWUn-Fu58c9UiAzUyNMu-13">
          <mxGeometry x="476" y="432.87" width="100.25" height="32.13" as="geometry" />
        </mxCell>
        <mxCell id="AWUn-Fu58c9UiAzUyNMu-34" style="rounded=0;orthogonalLoop=1;jettySize=auto;html=1;entryX=0;entryY=0;entryDx=0;entryDy=0;exitX=1;exitY=1;exitDx=0;exitDy=0;endArrow=open;endFill=0;" edge="1" parent="1" source="AWUn-Fu58c9UiAzUyNMu-7" target="AWUn-Fu58c9UiAzUyNMu-14">
          <mxGeometry relative="1" as="geometry">
            <mxPoint x="206.25" y="193.5" as="targetPoint" />
          </mxGeometry>
        </mxCell>
        <mxCell id="AWUn-Fu58c9UiAzUyNMu-35" value="System Sensors" style="swimlane;html=1;startSize=20;horizontal=0;direction=east;rotation=90;rounded=0;" vertex="1" parent="1">
          <mxGeometry x="-106.46" y="468.47" width="1051.64" height="240" as="geometry">
            <mxRectangle x="874" y="-66" width="40" height="120" as="alternateBounds" />
          </mxGeometry>
        </mxCell>
        <mxCell id="AWUn-Fu58c9UiAzUyNMu-36" value="" style="edgeStyle=orthogonalEdgeStyle;rounded=0;orthogonalLoop=1;jettySize=auto;html=1;endArrow=classic;endFill=1;" edge="1" parent="AWUn-Fu58c9UiAzUyNMu-35">
          <mxGeometry relative="1" as="geometry">
            <mxPoint x="546" y="38" as="sourcePoint" />
          </mxGeometry>
        </mxCell>
        <mxCell id="AWUn-Fu58c9UiAzUyNMu-76" style="edgeStyle=orthogonalEdgeStyle;rounded=0;orthogonalLoop=1;jettySize=auto;html=1;" edge="1" parent="AWUn-Fu58c9UiAzUyNMu-35" source="AWUn-Fu58c9UiAzUyNMu-56">
          <mxGeometry relative="1" as="geometry">
            <mxPoint x="470.37499999999994" y="140.26666666666674" as="targetPoint" />
          </mxGeometry>
        </mxCell>
        <mxCell id="AWUn-Fu58c9UiAzUyNMu-56" value="Run Visibility&amp;nbsp;&lt;br&gt;Module&amp;nbsp;" style="rounded=1;whiteSpace=wrap;html=1;shadow=1;" vertex="1" parent="AWUn-Fu58c9UiAzUyNMu-35">
          <mxGeometry x="417.81" y="75.1" width="105.13" height="35" as="geometry" />
        </mxCell>
        <mxCell id="AWUn-Fu58c9UiAzUyNMu-73" style="edgeStyle=orthogonalEdgeStyle;rounded=0;orthogonalLoop=1;jettySize=auto;html=1;startArrow=open;startFill=0;endArrow=none;endFill=0;" edge="1" parent="AWUn-Fu58c9UiAzUyNMu-35" source="AWUn-Fu58c9UiAzUyNMu-57">
          <mxGeometry relative="1" as="geometry">
            <mxPoint x="581.6249999999998" y="50.59137931034488" as="targetPoint" />
          </mxGeometry>
        </mxCell>
        <mxCell id="AWUn-Fu58c9UiAzUyNMu-77" style="edgeStyle=orthogonalEdgeStyle;rounded=0;orthogonalLoop=1;jettySize=auto;html=1;" edge="1" parent="AWUn-Fu58c9UiAzUyNMu-35" source="AWUn-Fu58c9UiAzUyNMu-57">
          <mxGeometry relative="1" as="geometry">
            <mxPoint x="581.6249999999999" y="139.85" as="targetPoint" />
          </mxGeometry>
        </mxCell>
        <mxCell id="AWUn-Fu58c9UiAzUyNMu-57" value="Run Terrain scanning Module&amp;nbsp;" style="rounded=1;whiteSpace=wrap;html=1;shadow=1;" vertex="1" parent="AWUn-Fu58c9UiAzUyNMu-35">
          <mxGeometry x="529.06" y="75.35" width="105.13" height="35" as="geometry" />
        </mxCell>
        <mxCell id="AWUn-Fu58c9UiAzUyNMu-68" value="" style="endArrow=none;html=1;rounded=0;" edge="1" parent="AWUn-Fu58c9UiAzUyNMu-35">
          <mxGeometry width="50" height="50" relative="1" as="geometry">
            <mxPoint x="429.81" y="50.349999999999994" as="sourcePoint" />
            <mxPoint x="615.81" y="50.349999999999994" as="targetPoint" />
          </mxGeometry>
        </mxCell>
        <mxCell id="AWUn-Fu58c9UiAzUyNMu-72" style="edgeStyle=orthogonalEdgeStyle;rounded=0;orthogonalLoop=1;jettySize=auto;html=1;startArrow=open;startFill=0;endArrow=none;endFill=0;" edge="1" parent="AWUn-Fu58c9UiAzUyNMu-35">
          <mxGeometry relative="1" as="geometry">
            <mxPoint x="470.37500000000006" y="51.625862068965574" as="targetPoint" />
            <mxPoint x="470.35166666666674" y="75.1" as="sourcePoint" />
          </mxGeometry>
        </mxCell>
        <mxCell id="AWUn-Fu58c9UiAzUyNMu-75" value="" style="endArrow=none;html=1;rounded=0;" edge="1" parent="AWUn-Fu58c9UiAzUyNMu-35">
          <mxGeometry width="50" height="50" relative="1" as="geometry">
            <mxPoint x="435.06" y="140.1" as="sourcePoint" />
            <mxPoint x="621.06" y="140.1" as="targetPoint" />
          </mxGeometry>
        </mxCell>
        <mxCell id="AWUn-Fu58c9UiAzUyNMu-79" style="edgeStyle=orthogonalEdgeStyle;rounded=0;orthogonalLoop=1;jettySize=auto;html=1;startArrow=open;startFill=0;endArrow=none;endFill=0;" edge="1" parent="AWUn-Fu58c9UiAzUyNMu-35" source="AWUn-Fu58c9UiAzUyNMu-78">
          <mxGeometry relative="1" as="geometry">
            <mxPoint x="523.06" y="140.33529411764707" as="targetPoint" />
          </mxGeometry>
        </mxCell>
        <mxCell id="AWUn-Fu58c9UiAzUyNMu-100" style="edgeStyle=orthogonalEdgeStyle;rounded=0;orthogonalLoop=1;jettySize=auto;html=1;" edge="1" parent="AWUn-Fu58c9UiAzUyNMu-35">
          <mxGeometry relative="1" as="geometry">
            <mxPoint x="556.14" y="49.933333333333394" as="targetPoint" />
            <mxPoint x="545.0070588235295" y="202.64411764705892" as="sourcePoint" />
            <Array as="points">
              <mxPoint x="643" y="203" />
              <mxPoint x="643" y="-34" />
              <mxPoint x="556" y="-34" />
            </Array>
          </mxGeometry>
        </mxCell>
        <mxCell id="AWUn-Fu58c9UiAzUyNMu-103" value="[Negative reading]" style="edgeLabel;html=1;align=center;verticalAlign=middle;resizable=0;points=[];" connectable="0" vertex="1" parent="AWUn-Fu58c9UiAzUyNMu-100">
          <mxGeometry x="-0.9" relative="1" as="geometry">
            <mxPoint x="21" y="-8" as="offset" />
          </mxGeometry>
        </mxCell>
        <mxCell id="AWUn-Fu58c9UiAzUyNMu-78" value="" style="rhombus;whiteSpace=wrap;html=1;" vertex="1" parent="AWUn-Fu58c9UiAzUyNMu-35">
          <mxGeometry x="502.06" y="185.1" width="42" height="35" as="geometry" />
        </mxCell>
        <mxCell id="AWUn-Fu58c9UiAzUyNMu-90" style="edgeStyle=orthogonalEdgeStyle;rounded=0;orthogonalLoop=1;jettySize=auto;html=1;entryX=0.5;entryY=0;entryDx=0;entryDy=0;" edge="1" parent="AWUn-Fu58c9UiAzUyNMu-35" source="AWUn-Fu58c9UiAzUyNMu-55" target="AWUn-Fu58c9UiAzUyNMu-89">
          <mxGeometry relative="1" as="geometry" />
        </mxCell>
        <mxCell id="AWUn-Fu58c9UiAzUyNMu-55" value="Run Sample&amp;nbsp;&lt;br&gt;Module&amp;nbsp;" style="rounded=1;whiteSpace=wrap;html=1;shadow=1;" vertex="1" parent="AWUn-Fu58c9UiAzUyNMu-35">
          <mxGeometry x="467.64" y="397.35" width="105.13" height="35" as="geometry" />
        </mxCell>
        <mxCell id="AWUn-Fu58c9UiAzUyNMu-89" value="Analyze Sample" style="rounded=1;whiteSpace=wrap;html=1;shadow=1;" vertex="1" parent="AWUn-Fu58c9UiAzUyNMu-35">
          <mxGeometry x="467.64" y="490.3499999999999" width="105.13" height="35" as="geometry" />
        </mxCell>
        <mxCell id="AWUn-Fu58c9UiAzUyNMu-49" style="rounded=0;orthogonalLoop=1;jettySize=auto;html=1;entryX=0;entryY=0;entryDx=0;entryDy=0;endArrow=open;endFill=0;exitX=0.996;exitY=0.941;exitDx=0;exitDy=0;exitPerimeter=0;" edge="1" parent="1" source="AWUn-Fu58c9UiAzUyNMu-10" target="AWUn-Fu58c9UiAzUyNMu-22">
          <mxGeometry relative="1" as="geometry" />
        </mxCell>
        <mxCell id="AWUn-Fu58c9UiAzUyNMu-52" value="Soil Sample Collection" style="swimlane;html=1;childLayout=stackLayout;resizeParent=1;resizeParentMax=0;horizontal=0;startSize=20;horizontalStack=0;direction=east;rotation=90;rounded=0;" vertex="1" parent="1">
          <mxGeometry x="-185.46" y="263.82" width="1098.64" height="627" as="geometry" />
        </mxCell>
        <mxCell id="AWUn-Fu58c9UiAzUyNMu-25" value="Hardware Module" style="swimlane;html=1;startSize=20;horizontal=0;direction=east;rotation=90;rounded=0;" vertex="1" parent="1">
          <mxGeometry x="73.75" y="528.25" width="1053" height="120" as="geometry" />
        </mxCell>
        <mxCell id="AWUn-Fu58c9UiAzUyNMu-26" value="" style="edgeStyle=orthogonalEdgeStyle;rounded=0;orthogonalLoop=1;jettySize=auto;html=1;endArrow=classic;endFill=1;" edge="1" parent="AWUn-Fu58c9UiAzUyNMu-25">
          <mxGeometry relative="1" as="geometry">
            <mxPoint x="523" y="-131" as="sourcePoint" />
          </mxGeometry>
        </mxCell>
        <mxCell id="AWUn-Fu58c9UiAzUyNMu-96" style="edgeStyle=orthogonalEdgeStyle;rounded=0;orthogonalLoop=1;jettySize=auto;html=1;exitX=0.5;exitY=1;exitDx=0;exitDy=0;entryX=0.5;entryY=0;entryDx=0;entryDy=0;" edge="1" parent="AWUn-Fu58c9UiAzUyNMu-25" source="AWUn-Fu58c9UiAzUyNMu-29" target="AWUn-Fu58c9UiAzUyNMu-59">
          <mxGeometry relative="1" as="geometry" />
        </mxCell>
        <mxCell id="AWUn-Fu58c9UiAzUyNMu-29" value="Drill&amp;nbsp;" style="rounded=1;whiteSpace=wrap;html=1;shadow=1;" vertex="1" parent="AWUn-Fu58c9UiAzUyNMu-25">
          <mxGeometry x="473.68" y="189" width="105.13" height="27.25" as="geometry" />
        </mxCell>
        <mxCell id="AWUn-Fu58c9UiAzUyNMu-30" value="Collect Sample" style="rounded=1;whiteSpace=wrap;html=1;glass=0;shadow=1;" vertex="1" parent="AWUn-Fu58c9UiAzUyNMu-25">
          <mxGeometry x="470" y="317" width="105.13" height="25" as="geometry" />
        </mxCell>
        <mxCell id="AWUn-Fu58c9UiAzUyNMu-99" style="edgeStyle=orthogonalEdgeStyle;rounded=0;orthogonalLoop=1;jettySize=auto;html=1;" edge="1" parent="AWUn-Fu58c9UiAzUyNMu-25" source="AWUn-Fu58c9UiAzUyNMu-59">
          <mxGeometry relative="1" as="geometry">
            <mxPoint x="414.5" y="-9.416666666666629" as="targetPoint" />
            <Array as="points">
              <mxPoint x="458" y="264" />
              <mxPoint x="458" y="-52" />
              <mxPoint x="415" y="-52" />
            </Array>
          </mxGeometry>
        </mxCell>
        <mxCell id="AWUn-Fu58c9UiAzUyNMu-101" value="[Still Unable to drill]" style="edgeLabel;html=1;align=center;verticalAlign=middle;resizable=0;points=[];" connectable="0" vertex="1" parent="AWUn-Fu58c9UiAzUyNMu-99">
          <mxGeometry x="-0.9048" relative="1" as="geometry">
            <mxPoint x="-20" y="-19" as="offset" />
          </mxGeometry>
        </mxCell>
        <mxCell id="AWUn-Fu58c9UiAzUyNMu-59" value="" style="rhombus;whiteSpace=wrap;html=1;hachureGap=4;fontFamily=Architects Daughter;fontSource=https%3A%2F%2Ffonts.googleapis.com%2Fcss%3Ffamily%3DArchitects%2BDaughter;fontSize=20;" vertex="1" parent="AWUn-Fu58c9UiAzUyNMu-25">
          <mxGeometry x="504.25" y="242" width="48" height="44" as="geometry" />
        </mxCell>
        <mxCell id="AWUn-Fu58c9UiAzUyNMu-95" style="edgeStyle=orthogonalEdgeStyle;rounded=0;orthogonalLoop=1;jettySize=auto;html=1;entryX=0.561;entryY=0.02;entryDx=0;entryDy=0;entryPerimeter=0;" edge="1" parent="AWUn-Fu58c9UiAzUyNMu-25" source="AWUn-Fu58c9UiAzUyNMu-59" target="AWUn-Fu58c9UiAzUyNMu-30">
          <mxGeometry relative="1" as="geometry" />
        </mxCell>
        <mxCell id="AWUn-Fu58c9UiAzUyNMu-110" value="[else]" style="edgeLabel;html=1;align=center;verticalAlign=middle;resizable=0;points=[];" connectable="0" vertex="1" parent="AWUn-Fu58c9UiAzUyNMu-95">
          <mxGeometry x="-0.1451" y="-1" relative="1" as="geometry">
            <mxPoint x="15" as="offset" />
          </mxGeometry>
        </mxCell>
        <mxCell id="AWUn-Fu58c9UiAzUyNMu-67" style="rounded=0;orthogonalLoop=1;jettySize=auto;html=1;exitX=1;exitY=1;exitDx=0;exitDy=0;" edge="1" parent="1" source="AWUn-Fu58c9UiAzUyNMu-22">
          <mxGeometry relative="1" as="geometry">
            <mxPoint x="330" y="518" as="targetPoint" />
          </mxGeometry>
        </mxCell>
        <mxCell id="AWUn-Fu58c9UiAzUyNMu-88" style="rounded=0;orthogonalLoop=1;jettySize=auto;html=1;exitX=0;exitY=0.25;exitDx=0;exitDy=0;entryX=1;entryY=0;entryDx=0;entryDy=0;" edge="1" parent="1" source="AWUn-Fu58c9UiAzUyNMu-30" target="AWUn-Fu58c9UiAzUyNMu-55">
          <mxGeometry relative="1" as="geometry">
            <mxPoint x="544.7400000000001" y="818.65" as="sourcePoint" />
            <mxPoint x="470" y="711" as="targetPoint" />
          </mxGeometry>
        </mxCell>
        <mxCell id="AWUn-Fu58c9UiAzUyNMu-98" style="edgeStyle=orthogonalEdgeStyle;rounded=0;orthogonalLoop=1;jettySize=auto;html=1;exitX=0.5;exitY=1;exitDx=0;exitDy=0;entryX=0.5;entryY=0;entryDx=0;entryDy=0;" edge="1" parent="1" source="AWUn-Fu58c9UiAzUyNMu-78" target="AWUn-Fu58c9UiAzUyNMu-29">
          <mxGeometry relative="1" as="geometry">
            <Array as="points">
              <mxPoint x="416" y="699" />
              <mxPoint x="600" y="699" />
            </Array>
          </mxGeometry>
        </mxCell>
        <mxCell id="AWUn-Fu58c9UiAzUyNMu-102" value="[else]" style="edgeLabel;html=1;align=center;verticalAlign=middle;resizable=0;points=[];" connectable="0" vertex="1" parent="AWUn-Fu58c9UiAzUyNMu-98">
          <mxGeometry x="-0.6392" relative="1" as="geometry">
            <mxPoint y="-8" as="offset" />
          </mxGeometry>
        </mxCell>
        <mxCell id="AWUn-Fu58c9UiAzUyNMu-106" style="edgeStyle=orthogonalEdgeStyle;rounded=0;orthogonalLoop=1;jettySize=auto;html=1;exitX=0;exitY=0.5;exitDx=0;exitDy=0;entryX=1;entryY=0.5;entryDx=0;entryDy=0;" edge="1" parent="1" source="AWUn-Fu58c9UiAzUyNMu-89" target="AWUn-Fu58c9UiAzUyNMu-105">
          <mxGeometry relative="1" as="geometry" />
        </mxCell>
        <mxCell id="AWUn-Fu58c9UiAzUyNMu-109" style="rounded=0;orthogonalLoop=1;jettySize=auto;html=1;entryX=1;entryY=0.25;entryDx=0;entryDy=0;" edge="1" parent="1" source="AWUn-Fu58c9UiAzUyNMu-105" target="AWUn-Fu58c9UiAzUyNMu-12">
          <mxGeometry relative="1" as="geometry" />
        </mxCell>
      </root>
    </mxGraphModel>
  </diagram>
</mxfile>
